PathFileType	4	(X/Y/Z)	D:\TRACE\spot_10-12-23\spot_arm_motion_2_5-v60.trc
DataRate	CameraRate	NumFrames	NumMarkers	Units	OrigDataRate	OrigDataStartFrame	OrigNumFrames
100.00	100.00	      18	9	mm	100.00	5251	      7000
Frame#	Time	front left toe			Front right toe			aft left toe			aft right toe			Arm			FL body			FR body			AL Body			AR Body			
		X1	Y1	Z1	X2	Y2	Z2	X3	Y3	Z3	X4	Y4	Z4	X5	Y5	Z5	X6	Y6	Z6	X7	Y7	Z7	X8	Y8	Z8	X9	Y9	Z9	

5251	52.500	-274.45932	23.58998	-3.95290	224.25476	21.05725	11.50616	-273.18842	22.96370	598.33887	199.55174	14.06615	607.57141	0.23697	790.35504	-713.74823	-71.03896	569.66577	-45.18290	81.74717	575.76508	-43.22616	-83.95231	522.71716	836.61029	66.54127	522.97943	841.76489	
5252	52.510	-275.30945	23.38121	-4.21609	223.08293	20.93550	11.01353	-274.10818	24.17404	598.09650	198.62990	15.56566	607.33618	-0.77228	789.48328	-714.80322	-72.31654	569.36389	-45.53754	80.26189	575.37256	-43.71901	-85.64814	524.63068	837.14532	65.12002	524.69824	841.45435	
5253	52.520	-276.55573	23.39734	-4.66465	222.32396	20.84253	10.87825	-275.20718	25.35165	597.61853	197.43530	16.74072	606.91394	-1.68340	788.52307	-715.59137	-73.74789	569.13245	-46.05918	78.83602	575.41858	-44.02938	-86.88630	525.90222	836.85022	64.48123	526.15021	841.68359	
5254	52.530	-277.31870	23.20266	-4.88802	221.04414	20.61551	10.74289	-276.32874	26.47448	597.35870	196.45352	17.97986	606.41785	-2.64212	787.65332	-716.39563	-75.01318	568.77869	-46.28307	77.81071	575.06140	-44.59131	-88.05521	526.96289	835.98700	62.14868	527.33362	840.55634	
5255	52.540	-278.32217	22.96241	-5.20707	220.17104	20.83540	10.58257	-277.14972	27.65407	597.11407	195.47276	19.32806	606.26422	-3.27330	786.73077	-717.27832	-76.50939	568.43134	-46.88031	76.35666	574.67780	-44.94842	-89.73850	528.52484	836.05872	60.99674	528.82465	840.31781	
5256	52.550	-279.52933	23.04951	-5.71427	219.16678	21.13143	9.89616	-278.28882	28.82899	596.81848	194.46007	20.50403	605.90497	-4.43176	786.02783	-718.05994	-77.54770	568.13361	-47.08973	75.17650	574.55566	-45.33676	-91.33101	530.12836	835.79810	59.66976	530.28125	840.23944	
5257	52.560	-280.27231	22.79426	-5.86840	217.93700	20.66638	9.32421	-279.21097	30.12375	596.39587	193.46645	21.75897	605.60291	-5.34239	785.27930	-718.81995	-78.89649	567.98145	-47.65714	73.64745	574.59698	-45.67847	-92.70793	531.37335	835.52765	58.09301	531.56305	839.49597	
5258	52.570	-281.31131	22.73184	-6.02259	217.02435	20.82582	9.07989	-280.09671	31.14219	596.28790	192.58705	23.01280	605.51044	-6.20569	784.44873	-719.42700	-80.19040	567.73572	-47.90065	72.64359	574.28137	-46.00341	-93.77162	532.48029	835.11853	57.21611	532.89496	839.20691	
5259	52.580	-282.49265	22.77386	-6.49299	216.34938	20.53973	8.77614	-281.27518	32.45334	595.90247	191.60448	24.03319	605.13757	-7.04137	783.57159	-720.06281	-81.55862	567.56323	-48.32874	71.20863	574.27563	-46.53555	-95.48679	533.91754	834.86316	55.41780	533.74146	838.84607	
5260	52.590	-283.33646	22.59179	-6.88439	215.24722	20.40766	8.33415	-282.14038	33.62595	595.43518	190.59897	25.25062	604.71387	-8.19980	782.88751	-720.67865	-82.77063	567.50323	-48.75179	70.03182	574.12634	-46.81134	-96.83980	535.15424	834.19379	54.45637	535.57385	838.81464	
5261	52.600	-284.01471	22.52101	-7.09258	214.25546	21.02699	8.15273	-283.04745	34.67854	595.20679	189.82901	26.64962	604.56995	-9.10025	781.98499	-721.20270	-83.95748	567.40778	-49.12539	68.80462	574.02356	-47.15049	-97.73280	536.11249	834.27948	53.71016	537.12891	839.04346	
5262	52.610	-284.96707	22.45731	-7.63806	213.56456	20.74679	7.91178	-283.91995	35.80136	595.09161	188.76756	27.79980	604.22827	-10.05731	781.06482	-721.85071	-85.39216	567.13391	-49.64763	67.33649	574.06873	-47.58891	-99.37830	537.43237	833.79688	51.54504	538.18085	837.94751	
5263	52.620	-285.89700	22.46464	-7.77197	212.27481	20.43609	7.44639	-284.85190	36.89668	594.72473	187.81949	28.99664	603.83411	-11.09247	779.84924	-722.50104	-86.41355	566.92932	-49.71397	66.49576	574.05676	-47.82022	-99.98129	538.13354	832.94843	50.38039	539.57648	837.70453	
5264	52.630	-286.80753	22.26280	-8.04286	211.67505	20.46073	7.17952	-285.77448	38.05110	594.24902	187.08846	30.28382	603.70337	-12.11384	778.81250	-723.19794	-87.74595	566.85327	-50.30130	64.89677	574.11383	-48.35637	-101.61209	539.88037	833.10303	48.84933	540.74799	837.25452	
5265	52.640	-287.47226	22.07305	-8.27700	211.14349	20.43278	6.89251	-286.53445	39.19697	593.99512	186.30675	31.37769	603.36932	-13.07625	777.42706	-723.97784	-88.86403	566.57715	-50.61716	63.68775	573.78137	-48.87370	-103.31963	541.16052	832.39642	47.46663	542.42841	837.26312	
5266	52.650	-288.64621	22.14333	-8.81409	210.16051	20.32294	6.49575	-287.30167	40.16416	593.73816	185.39362	32.39239	602.98505	-14.08703	776.09857	-724.55176	-90.11523	566.20959	-51.01710	62.48389	573.55176	-49.19529	-103.57093	542.04205	832.22260	46.66056	543.72284	836.73810	
5267	52.660	-289.02609	21.85432	-8.95508	209.46959	20.40519	6.21497	-288.23236	41.30440	593.29865	184.75159	33.82233	602.69153	-15.27655	774.93555	-725.42639	-91.39938	566.09045	-51.43106	61.67206	573.45667	-49.43752	-105.32687	543.82043	832.09961	45.36467	545.01038	836.70715	
5268	52.670	-289.74988	21.63766	-9.20964	208.60194	20.52310	5.96620	-289.09479	42.55081	592.95380	183.88387	34.82953	602.44366	-16.35125	773.80939	-726.16107	-92.38628	565.83643	-51.77592	60.23232	573.34686	-49.82206	-106.70357	544.95526	831.88312	44.35292	546.34918	836.22528	
